<svg xmlns="http://www.w3.org/2000/svg" width="16" height="16" fill="currentColor" class="bi bi-spotify" viewBox="0 0 16 16">
  <path d="M8 0a8 8 0 1 0 0 16A8 8 0 0 0 8 0m3.669 11.538a.5.5 0 0 1-.686.165c-1.879-1.147-4.243-1.407-7.028-.77a.499.499 0 0 1-.222-.973c3.048-.696 5.662-.397 7.77.892a.5.5 0 0 1 .166.686m.979-2.176a.628.628 0 0 1-.796.187c-2.181-1.336-5.45-1.748-8.775-.815a.625.625 0 0 1-.362-1.22c3.737-1.077 7.31-.692 9.77.766a.627.627 0 0 1 .187.796m.855-2.224a.758.758 0 0 1-.84-.2c-2.657-1.6-6.614-1.93-9.975-.91a.752.752 0 0 1-.413-1.321c3.794-1.14 8.04-1.026 11.029.802a.75.75 0 0 1-.194 1.125Z"/>
</svg>